<svg width="17" height="17" viewBox="0 0 17 17" fill="none" xmlns="http://www.w3.org/2000/svg">
<path d="M10.8492 14.5417C11.7861 14.5417 12.2544 14.5417 12.6356 14.4261C13.4938 14.1657 14.1654 13.4941 14.4257 12.6359C14.5413 12.2548 14.5413 11.7864 14.5413 10.8495M14.5413 6.15046C14.5413 5.21362 14.5413 4.74521 14.4257 4.36404C14.1654 3.50586 13.4938 2.83428 12.6356 2.57395C12.2544 2.45833 11.7861 2.45833 10.8492 2.45833M6.15014 14.5417C5.2133 14.5417 4.74489 14.5417 4.36372 14.4261C3.50554 14.1657 2.83396 13.4941 2.57363 12.6359C2.45801 12.2548 2.45801 11.7864 2.45801 10.8495M2.45801 6.15046C2.45801 5.21362 2.45801 4.74521 2.57363 4.36404C2.83396 3.50586 3.50554 2.83428 4.36372 2.57395C4.74489 2.45833 5.2133 2.45833 6.15014 2.45833" stroke="white" stroke-linecap="round" stroke-linejoin="round"/>
</svg>

