<svg width="83" height="14" viewBox="0 0 83 14" fill="none" xmlns="http://www.w3.org/2000/svg">
<path d="M11.2006 4.84223L7.41179 4.51942C7.36648 3.7945 6.86244 3.39239 5.89965 3.31311C5.05014 3.23382 4.60273 3.43204 4.55742 3.90777C4.52344 4.28155 5.02749 4.69498 6.06956 5.14806C6.7605 5.39725 7.45143 5.64644 8.14237 5.89563C10.1246 6.63188 11.1213 7.76456 11.1327 9.29369C11.144 10.3811 10.8325 11.2759 10.1982 11.9782C9.1448 13.1561 7.42878 13.6432 5.05014 13.4393C2.92069 13.2468 1.41988 12.4199 0.547713 10.9587C0.151273 10.2905 -0.0299566 9.58819 0.00402402 8.85194L3.82684 9.17476C3.87215 9.59385 4.0647 9.93932 4.40451 10.2112C4.71033 10.449 5.07846 10.5906 5.50888 10.6359C6.61891 10.7265 7.19658 10.466 7.24189 9.85437C7.27587 9.46926 6.77749 9.05582 5.74674 8.61408C5.0558 8.36489 4.36487 8.1157 3.67393 7.8665C1.6804 7.13026 0.683636 5.96926 0.683636 4.38349C0.683636 3.56796 0.870529 2.87136 1.24432 2.29369C1.84464 1.35356 2.82441 0.77589 4.18364 0.560679C4.5914 0.492718 5.01616 0.458738 5.45791 0.458738C5.74108 0.458738 6.02991 0.470065 6.32441 0.492718C8.44253 0.685275 9.87538 1.44984 10.623 2.78641C10.9741 3.39806 11.1666 4.08333 11.2006 4.84223Z" fill="black"/>
<path d="M21.4924 9.14078C21.4924 10.5793 20.8467 11.6837 19.5555 12.4539C18.8192 12.8956 17.9187 13.2015 16.854 13.3714C16.1744 13.4733 15.5288 13.479 14.9171 13.3883C12.9009 13.1052 11.7173 11.8819 11.3661 9.71845L14.6623 9.20874C14.8435 10.3754 15.4948 10.8738 16.6161 10.7039C17.0466 10.6359 17.392 10.449 17.6526 10.1432C17.9244 9.83738 18.0263 9.47492 17.9584 9.05583C17.8904 8.63673 17.7318 8.3479 17.4827 8.18932C17.2788 8.0534 16.9616 7.98544 16.5312 7.98544C16.248 7.98544 15.9252 8.01375 15.5627 8.07039L15.2399 5.99757C16.6218 5.77104 17.2505 5.25566 17.1259 4.45146C17.0352 3.86246 16.6331 3.56796 15.9195 3.56796C15.3532 3.56796 14.9115 3.73786 14.5943 4.07767C14.3564 4.34951 14.2432 4.69498 14.2545 5.11408L11.0943 5.6068C11.0716 5.40291 11.0603 5.21036 11.0603 5.02913C11.0603 3.57929 11.7003 2.48058 12.9802 1.73301C13.6485 1.33657 14.4074 1.07039 15.2569 0.934466C15.6873 0.866505 16.0951 0.832525 16.4802 0.832525C17.7941 0.832525 18.8022 1.17799 19.5045 1.86893C19.9462 2.32201 20.2238 2.88269 20.337 3.55097C20.5069 4.67233 20.1728 5.53317 19.3346 6.1335C20.1048 6.29207 20.6768 6.68285 21.0506 7.30583C21.3451 7.78155 21.4924 8.3932 21.4924 9.14078Z" fill="black"/>
<path d="M27.9558 7.18689C27.4914 7.17557 27.2479 7.1699 27.2253 7.1699C25.934 7.30583 25.2884 8.04207 25.2884 9.37864C25.2884 9.5712 25.2997 9.77508 25.3223 9.99029L25.6452 13.0995L22.1282 13.4563L21.1937 4.51942L24.3879 4.1966L24.5918 5.99757H24.6088C24.9486 4.57039 25.7811 3.78883 27.1063 3.65291C27.163 3.64159 27.2366 3.63592 27.3272 3.63592C27.4178 3.63592 27.5028 3.64159 27.5821 3.65291L27.9558 7.18689Z" fill="black"/>
<path d="M38.3621 8.9199L31.634 9.63349C31.6906 10.1319 31.9002 10.534 32.2626 10.8398C32.6364 11.1343 33.0725 11.2532 33.5709 11.1966C34.2052 11.1286 34.6129 10.8172 34.7942 10.2621L38.1582 9.90534C37.9657 11.0833 37.3144 11.9838 36.2044 12.6068C35.2529 13.1505 34.1372 13.4223 32.8573 13.4223C31.1582 13.4223 29.8613 12.856 28.9665 11.7233C28.3322 10.9078 28.015 9.88835 28.015 8.66505C28.015 6.97735 28.7003 5.69175 30.0709 4.80825C30.9883 4.1966 32.0644 3.89644 33.299 3.90777C35.1226 3.90777 36.4989 4.63269 37.4277 6.08252C37.926 6.8754 38.2375 7.8212 38.3621 8.9199ZM34.6413 7.47573C34.6073 7.06796 34.4147 6.72816 34.0636 6.45631C33.7238 6.17314 33.3443 6.04854 32.9252 6.08252C32.223 6.16181 31.7642 6.45631 31.549 6.96602C31.4471 7.21521 31.4131 7.49838 31.4471 7.81553L34.6413 7.47573Z" fill="black"/>
<path d="M48.7887 12.335L45.3057 12.8956L44.5581 8.18932C44.3996 7.20388 43.9918 6.71117 43.3348 6.71117C42.8818 6.69984 42.5363 6.81311 42.2984 7.05097C42.0606 7.28883 41.9416 7.6343 41.9416 8.08738C41.9416 8.29126 41.9586 8.5178 41.9926 8.76699L42.7062 13.3034L39.2232 13.8471L37.813 4.97816L41.0072 4.46845L41.228 5.86165C41.6698 5.02346 42.1908 4.44013 42.7911 4.11165C43.131 3.94175 43.5104 3.82282 43.9295 3.75485C45.4586 3.50566 46.563 3.91909 47.2426 4.99515C47.5824 5.52751 47.8203 6.20146 47.9562 7.01699L48.7887 12.335Z" fill="black"/>
<path d="M60.7886 5.79369C60.8793 6.37136 60.9246 6.92071 60.9246 7.44175C60.9246 9.50324 60.1883 11.0154 58.7158 11.9782C57.821 12.5672 56.711 12.9636 55.3857 13.1675L50.1867 14L48.2498 1.80097L53.5508 0.951456C54.1171 0.860842 54.6551 0.815535 55.1649 0.815535C57.0791 0.815535 58.5289 1.42718 59.5144 2.65049C60.16 3.44337 60.5848 4.4911 60.7886 5.79369ZM56.8639 6.6432C56.6713 5.39725 56.3202 4.58172 55.8105 4.1966C55.4594 3.93608 54.9723 3.80583 54.3493 3.80583C54.0661 3.80583 53.7603 3.82848 53.4318 3.87379L52.6673 4.00971L53.6867 10.517L54.5362 10.3811C56.1446 10.1319 56.9488 9.20874 56.9488 7.61165C56.9488 7.30583 56.9205 6.98301 56.8639 6.6432Z" fill="black"/>
<path d="M71.9514 5.04612C71.9401 7.5267 70.3939 8.92557 67.313 9.24272L65.3082 9.46359L65.699 13.2864L61.7232 13.6942L60.432 1.41019L66.2936 0.798543C67.9927 0.617314 69.3292 0.855178 70.3033 1.51214C70.7791 1.81796 71.1472 2.2144 71.4077 2.70146C71.7702 3.35841 71.9514 4.13997 71.9514 5.04612ZM68.1116 4.80825C68.0323 4.07201 67.4433 3.70388 66.3446 3.70388C66.186 3.70388 66.0218 3.70955 65.8519 3.72087L64.7135 3.83981L65.0024 6.59223L66.6674 6.40534C67.7321 6.3034 68.2135 5.77104 68.1116 4.80825Z" fill="black"/>
<path d="M82.3723 3.19417L78.8213 3.77184L80.2315 12.7597L76.2728 13.3883L74.8626 4.38349L71.2946 4.96117L70.7849 1.75L81.8626 0L82.3723 3.19417Z" fill="black"/>
</svg>
