<svg width="35" height="35" viewBox="0 0 35 35" fill="none" xmlns="http://www.w3.org/2000/svg">
<path d="M20.6409 18.173H26.5865V16.7147H20.6409V18.173ZM20.6409 14.1346H26.5865V12.6762H20.6409V14.1346ZM8.41349 22.3238H18.0607V22.0825C18.0607 21.2318 17.6336 20.5732 16.7792 20.1068C15.9249 19.6404 14.7442 19.4072 13.2373 19.4072C11.7303 19.4072 10.5496 19.6404 9.695 20.1068C8.84066 20.5732 8.41349 21.2318 8.41349 22.0825V22.3238ZM13.2373 17.0512C13.8522 17.0512 14.3705 16.8405 14.7922 16.419C15.2139 15.9973 15.4248 15.4789 15.4248 14.8637C15.4248 14.2485 15.2139 13.7302 14.7922 13.3088C14.3705 12.8871 13.8522 12.6762 13.2373 12.6762C12.6221 12.6762 12.1037 12.8871 11.682 13.3088C11.2605 13.7302 11.0498 14.2485 11.0498 14.8637C11.0498 15.4789 11.2605 15.9973 11.682 16.419C12.1037 16.8405 12.6221 17.0512 13.2373 17.0512ZM6.73094 27.7084C6.05962 27.7084 5.49913 27.4835 5.04948 27.0339C4.59983 26.5842 4.375 26.0237 4.375 25.3524V9.64762C4.375 8.9763 4.59983 8.41582 5.04948 7.96617C5.49913 7.51651 6.05962 7.29169 6.73094 7.29169H28.2691C28.9404 7.29169 29.5009 7.51651 29.9505 7.96617C30.4002 8.41582 30.625 8.9763 30.625 9.64762V25.3524C30.625 26.0237 30.4002 26.5842 29.9505 27.0339C29.5009 27.4835 28.9404 27.7084 28.2691 27.7084H6.73094ZM6.73094 26.25H28.2691C28.4936 26.25 28.6994 26.1566 28.8863 25.9697C29.0732 25.7827 29.1667 25.577 29.1667 25.3524V9.64762C29.1667 9.42304 29.0732 9.21729 28.8863 9.03039C28.6994 8.84348 28.4936 8.75002 28.2691 8.75002H6.73094C6.50635 8.75002 6.30061 8.84348 6.1137 9.03039C5.92679 9.21729 5.83333 9.42304 5.83333 9.64762V25.3524C5.83333 25.577 5.92679 25.7827 6.1137 25.9697C6.30061 26.1566 6.50635 26.25 6.73094 26.25Z" fill="white"/>
</svg>

