<svg width="35" height="35" viewBox="0 0 35 35" fill="none" xmlns="http://www.w3.org/2000/svg">
<path d="M26.1373 18.2291V16.7708H30.8488V18.2291H26.1373ZM27.7192 27.6521L23.9498 24.8252L24.8587 23.6698L28.6278 26.4968L27.7192 27.6521ZM24.7464 11.2178L23.8379 10.0625L27.607 7.23547L28.5155 8.39084L24.7464 11.2178ZM8.02044 26.1938V20.6408H6.50596C5.8536 20.6408 5.29786 20.4114 4.83872 19.9525C4.37983 19.4934 4.15039 18.9376 4.15039 18.2853V16.7146C4.15039 16.0623 4.37983 15.5065 4.83872 15.0474C5.29786 14.5885 5.8536 14.3591 6.50596 14.3591H11.9466L17.7238 10.9375V24.0625L11.9466 20.6408H9.47878V26.1938H8.02044ZM16.2655 21.4655V13.5344L12.3561 15.8174H6.50596C6.28162 15.8174 6.076 15.9109 5.88909 16.0978C5.70218 16.2847 5.60872 16.4903 5.60872 16.7146V18.2853C5.60872 18.5096 5.70218 18.7152 5.88909 18.9021C6.076 19.089 6.28162 19.1825 6.50596 19.1825H12.3561L16.2655 21.4655ZM20.304 21.7123V13.2876C20.792 13.7401 21.1852 14.3343 21.4834 15.07C21.7816 15.8057 21.9308 16.6157 21.9308 17.5C21.9308 18.3842 21.7816 19.1942 21.4834 19.9299C21.1852 20.6656 20.792 21.2598 20.304 21.7123Z" fill="white"/>
</svg>

