<svg width="29" height="29" viewBox="0 0 29 29" fill="none" xmlns="http://www.w3.org/2000/svg">
<path d="M5.20585 23.5625C4.59544 23.5625 4.07878 23.351 3.65586 22.9281C3.23294 22.5052 3.02148 21.9885 3.02148 21.3781V7.62186C3.02148 7.01145 3.23294 6.49479 3.65586 6.07187C4.07878 5.64896 4.59544 5.4375 5.20585 5.4375H23.7955C24.4059 5.4375 24.9225 5.64896 25.3454 6.07187C25.7684 6.49479 25.9798 7.01145 25.9798 7.62186V21.3781C25.9798 21.9885 25.7684 22.5052 25.3454 22.9281C24.9225 23.351 24.4059 23.5625 23.7955 23.5625H5.20585ZM14.5007 15.1739L4.83398 8.99272V21.3781C4.83398 21.4867 4.86882 21.5758 4.93851 21.6455C5.00819 21.7152 5.0973 21.75 5.20585 21.75H23.7955C23.904 21.75 23.9931 21.7152 24.0628 21.6455C24.1325 21.5758 24.1673 21.4867 24.1673 21.3781V8.99272L14.5007 15.1739ZM14.5007 13.2917L23.9815 7.25H5.01977L14.5007 13.2917ZM4.83398 8.99272V7.25V21.3781C4.83398 21.4867 4.86882 21.5758 4.93851 21.6455C5.00819 21.7152 5.0973 21.75 5.20585 21.75H4.83398V8.99272Z" fill="black"/>
</svg>
