<svg width="35" height="35" viewBox="0 0 35 35" fill="none" xmlns="http://www.w3.org/2000/svg">
<path d="M13.125 22.6042C13.7402 22.6042 14.2585 22.3933 14.6799 21.9716C15.1016 21.5502 15.3125 21.0318 15.3125 20.4167C15.3125 19.8015 15.1016 19.2832 14.6799 18.8617C14.2585 18.44 13.7402 18.2292 13.125 18.2292C12.5098 18.2292 11.9915 18.44 11.5701 18.8617C11.1484 19.2832 10.9375 19.8015 10.9375 20.4167C10.9375 21.0318 11.1484 21.5502 11.5701 21.9716C11.9915 22.3933 12.5098 22.6042 13.125 22.6042ZM21.875 22.6042C22.4902 22.6042 23.0085 22.3933 23.43 21.9716C23.8517 21.5502 24.0625 21.0318 24.0625 20.4167C24.0625 19.8015 23.8517 19.2832 23.43 18.8617C23.0085 18.44 22.4902 18.2292 21.875 18.2292C21.2598 18.2292 20.7415 18.44 20.3201 18.8617C19.8984 19.2832 19.6875 19.8015 19.6875 20.4167C19.6875 21.0318 19.8984 21.5502 20.3201 21.9716C20.7415 22.3933 21.2598 22.6042 21.875 22.6042ZM17.5 15.3125C18.1152 15.3125 18.6335 15.1017 19.0549 14.6799C19.4767 14.2585 19.6875 13.7402 19.6875 13.125C19.6875 12.5098 19.4767 11.9915 19.0549 11.5701C18.6335 11.1484 18.1152 10.9375 17.5 10.9375C16.8848 10.9375 16.3665 11.1484 15.9451 11.5701C15.5234 11.9915 15.3125 12.5098 15.3125 13.125C15.3125 13.7402 15.5234 14.2585 15.9451 14.6799C16.3665 15.1017 16.8848 15.3125 17.5 15.3125ZM17.5047 30.625C15.6898 30.625 13.9835 30.2806 12.3856 29.5918C10.788 28.903 9.39823 27.9682 8.21625 26.7874C7.03427 25.6066 6.09863 24.2181 5.40932 22.6217C4.71977 21.0255 4.375 19.3199 4.375 17.5047C4.375 15.6898 4.71941 13.9835 5.40823 12.3856C6.09705 10.788 7.03184 9.39823 8.2126 8.21625C9.39337 7.03427 10.7819 6.09863 12.3783 5.40932C13.9745 4.71977 15.6801 4.375 17.4953 4.375C19.3102 4.375 21.0165 4.71941 22.6144 5.40823C24.212 6.09705 25.6018 7.03184 26.7838 8.2126C27.9657 9.39337 28.9014 10.7819 29.5907 12.3783C30.2802 13.9745 30.625 15.6801 30.625 17.4953C30.625 19.3102 30.2806 21.0165 29.5918 22.6144C28.903 24.212 27.9682 25.6018 26.7874 26.7838C25.6066 27.9657 24.2181 28.9014 22.6217 29.5907C21.0255 30.2802 19.3199 30.625 17.5047 30.625ZM17.5 29.1667C20.7569 29.1667 23.5156 28.0365 25.776 25.776C28.0365 23.5156 29.1667 20.7569 29.1667 17.5C29.1667 14.2431 28.0365 11.4844 25.776 9.22396C23.5156 6.96354 20.7569 5.83333 17.5 5.83333C14.2431 5.83333 11.4844 6.96354 9.22396 9.22396C6.96354 11.4844 5.83333 14.2431 5.83333 17.5C5.83333 20.7569 6.96354 23.5156 9.22396 25.776C11.4844 28.0365 14.2431 29.1667 17.5 29.1667Z" fill="white"/>
</svg>

