<svg width="35" height="35" viewBox="0 0 35 35" fill="none" xmlns="http://www.w3.org/2000/svg">
<path d="M10.7695 3.75812H24.2314V14.0842C24.2314 14.6058 24.0912 15.09 23.8107 15.5367C23.5302 15.9837 23.1525 16.3502 22.6776 16.6363L17.7808 19.5865L18.8578 23.053H23.0534L19.5983 25.476L20.9556 29.7278L17.5005 27.0856L14.0453 29.7278L15.4027 25.476L11.9475 23.053H16.1431L17.2201 19.5865L12.2672 16.6924C11.7923 16.4251 11.424 16.0586 11.1622 15.5929C10.9004 15.1274 10.7695 14.6245 10.7695 14.0842V3.75812ZM12.2279 5.21645V14.0842C12.2279 14.3647 12.298 14.6217 12.4382 14.8553C12.5785 15.0891 12.7701 15.2808 13.0132 15.4303L16.7713 17.6291V5.21645H12.2279ZM22.7731 5.21645H18.2296V17.6291L21.9878 15.4303C22.2308 15.2808 22.4225 15.0891 22.5627 14.8553C22.7029 14.6217 22.7731 14.3647 22.7731 14.0842V5.21645Z" fill="white"/>
</svg>

